<?xml version="1.0" standalone="no"?>
<!DOCTYPE svg PUBLIC "-//W3C//DTD SVG 1.1//EN" "http://www.w3.org/Graphics/SVG/1.1/DTD/svg11.dtd" >
<svg xmlns="http://www.w3.org/2000/svg">
<metadata></metadata>
<defs>
<font id="core_sans_g_85_heavyregular" horiz-adv-x="642" >
<font-face units-per-em="1000" ascent="800" descent="-200" />
<missing-glyph horiz-adv-x="300" />
<glyph unicode="&#xfb01;" horiz-adv-x="701" d="M279 513v-45h367v-468h-178v328h-189v-328h-178v328h-71v140h71v44q0 115 71 182t192 67q72 0 137.5 -33t106.5 -92l-127 -73q-38 58 -101 58q-47 0 -74 -30t-27 -78z" />
<glyph unicode="&#xfb02;" horiz-adv-x="710" d="M30 468h71v61q0 106 63.5 169t164.5 63q40 0 81.5 -13.5t66.5 -34.5v37h178v-750h-178v584q-35 37 -93 37q-50 0 -77.5 -29t-27.5 -78v-46h117v-140h-117v-328h-178v328h-71v140z" />
<glyph unicode="&#xfb03;" horiz-adv-x="1074" d="M652 513v-45h367v-468h-178v328h-189v-328h-178v328h-195v-328h-178v328h-71v140h71v69q0 98 52.5 153.5t149.5 55.5q92 0 163 -48l-61 -116q-32 24 -66 24q-29 0 -44.5 -19t-15.5 -51v-68h195v44q0 115 71 182t192 67q72 0 137.5 -33t106.5 -92l-127 -73q-38 58 -101 58 q-47 0 -74 -30t-27 -78z" />
<glyph unicode="&#xfb04;" horiz-adv-x="1083" d="M279 536v-68h195v61q0 106 63.5 169t164.5 63q40 0 81.5 -13.5t66.5 -34.5v37h178v-750h-178v584q-35 37 -93 37q-50 0 -77.5 -29t-27.5 -78v-46h117v-140h-117v-328h-178v328h-195v-328h-178v328h-71v140h71v69q0 98 52.5 153.5t149.5 55.5q92 0 163 -48l-61 -116 q-32 24 -66 24q-29 0 -44.5 -19t-15.5 -51z" />
<glyph horiz-adv-x="0" />
<glyph horiz-adv-x="0" />
<glyph horiz-adv-x="333" />
<glyph horiz-adv-x="0" />
<glyph unicode="&#x9;" horiz-adv-x="237" />
<glyph unicode="&#xd;" horiz-adv-x="237" />
<glyph horiz-adv-x="0" />
<glyph unicode=" "  horiz-adv-x="300" />
<glyph unicode="&#x09;" horiz-adv-x="300" />
<glyph unicode="&#xa0;" horiz-adv-x="300" />
<glyph unicode="!" horiz-adv-x="364" d="M80 700h204v-474h-204v474zM182 -12q-46 0 -77.5 27t-31.5 68q0 42 31.5 69.5t77.5 27.5t77.5 -27.5t31.5 -69.5q0 -41 -31.5 -68t-77.5 -27z" />
<glyph unicode="&#x22;" horiz-adv-x="602" d="M109 384l-22 316h179l-22 -316h-135zM358 384l-22 316h179l-22 -316h-135z" />
<glyph unicode="#" horiz-adv-x="683" d="M393 558v142h154v-142h90v-145h-90v-123h90v-145h-90v-145h-154v145h-103v-145h-154v145h-90v145h90v123h-90v145h90v142h154v-142h103zM290 413v-123h103v123h-103z" />
<glyph unicode="$" horiz-adv-x="574" d="M367 434q88 -35 130.5 -89.5t42.5 -135.5q0 -79 -44 -135.5t-124 -75.5v-94h-145v89q-123 17 -198 100l96 141q63 -76 143 -76q30 0 49 15.5t19 41.5q0 27 -16 45t-61 34q-193 69 -193 222q0 66 38 115.5t106 69.5v94h145v-89q81 -17 148 -69l-86 -126q-43 41 -94 41 q-24 0 -38.5 -11t-14.5 -28q0 -23 19.5 -39.5t77.5 -39.5z" />
<glyph unicode="%" horiz-adv-x="948" d="M667 712l87 -60l-473 -664l-87 60zM405 540q0 -73 -51.5 -122.5t-123.5 -49.5t-123.5 49.5t-51.5 122.5t51.5 122.5t123.5 49.5t123.5 -49.5t51.5 -122.5zM182 540q0 -20 14 -34t34 -14t34 14t14 34t-14 34t-34 14t-34 -14t-14 -34zM893 160q0 -73 -51.5 -122.5 t-123.5 -49.5t-123.5 49.5t-51.5 122.5t51.5 122.5t123.5 49.5t123.5 -49.5t51.5 -122.5zM670 160q0 -20 14 -34t34 -14t34 14t14 34t-14 34t-34 14t-34 -14t-14 -34z" />
<glyph unicode="&#x26;" horiz-adv-x="690" d="M551 335l119 -126q-54 -63 -95 -98l93 -117l-186 -28l-49 62q-64 -40 -152 -40q-110 0 -177 57t-67 147q0 117 118 205q-34 48 -48 79t-14 67q0 75 57 122t143 47q83 0 142 -47.5t59 -121.5q0 -98 -115 -177l92 -121q45 45 80 90zM212 198q0 -25 17 -42t47 -17 q36 0 61 17l-85 111q-40 -31 -40 -69zM337 545q0 17 -12 29.5t-31 12.5q-21 0 -32.5 -12t-11.5 -32q0 -28 36 -68q51 38 51 70z" />
<glyph unicode="'" horiz-adv-x="353" d="M109 384l-22 316h179l-22 -316h-135z" />
<glyph unicode="(" horiz-adv-x="420" d="M81 310q0 236 130 440l162 -23q-112 -194 -112 -417t112 -417l-162 -23q-130 204 -130 440z" />
<glyph unicode=")" horiz-adv-x="420" d="M339 310q0 -236 -130 -440l-162 23q112 194 112 417t-112 417l162 23q130 -204 130 -440z" />
<glyph unicode="*" horiz-adv-x="622" d="M578 325l-53 -17l-120 -14l88 -81l33 -45l-131 -95l-32 45l-52 110l-52 -110l-32 -45l-131 95l33 45l88 81l-120 14l-53 17l50 154l53 -17l107 -61l-24 122v55h162v-55l-24 -122l107 61l53 17z" />
<glyph unicode="+" horiz-adv-x="634" d="M228 69v189h-166v148h166v189h178v-189h166v-148h-166v-189h-178z" />
<glyph unicode="," horiz-adv-x="320" d="M14 -140l78 337l188 -24l-122 -330z" />
<glyph unicode="-" horiz-adv-x="406" d="M354 258h-302v148h302v-148z" />
<glyph unicode="." horiz-adv-x="320" d="M53 96q0 45 31 76.5t76 31.5t76 -31.5t31 -76.5t-31 -76.5t-76 -31.5t-76 31.5t-31 76.5z" />
<glyph unicode="/" horiz-adv-x="593" d="M415 748l176 -24l-413 -834l-176 24z" />
<glyph unicode="0" horiz-adv-x="640" d="M576 350q0 -166 -67.5 -264t-188.5 -98t-188.5 98t-67.5 264t67.5 264t188.5 98t188.5 -98t67.5 -264zM256 350q0 -97 15.5 -138t48.5 -41t48.5 41t15.5 138t-15.5 138t-48.5 41t-48.5 -41t-15.5 -138z" />
<glyph unicode="1" horiz-adv-x="640" d="M381 708l92 -26v-682h-204v455l-96 -53l-83 145z" />
<glyph unicode="2" horiz-adv-x="640" d="M109 0l-37 89l236 297q45 58 45 98q0 25 -16 39.5t-41 14.5q-43 0 -69 -54l-150 65q37 79 100 121t143 42q104 0 168 -62.5t64 -162.5q0 -45 -19.5 -93t-38 -74t-61.5 -78.5t-55 -67.5h188v-174h-457z" />
<glyph unicode="3" horiz-adv-x="640" d="M249 313l-46 87l103 141h-197v159h403l46 -86l-135 -189q145 -59 145 -208q0 -95 -70 -162t-188 -67q-79 0 -144.5 34t-103.5 97q10 7 60.5 43t76.5 55q32 -57 89 -57q34 0 56 21t22 56q0 37 -26.5 57.5t-64.5 20.5q-10 0 -26 -2z" />
<glyph unicode="4" horiz-adv-x="640" d="M63 115l-34 82l347 509l145 -9v-416h68v-166h-68v-115h-188v115h-270zM228 280h105v153z" />
<glyph unicode="5" horiz-adv-x="640" d="M202 293q-2 1 -91 47l53 360h370v-167h-190l-13 -81q101 -5 165.5 -66.5t64.5 -159.5q0 -105 -70.5 -171.5t-190.5 -66.5q-75 0 -139.5 33.5t-103.5 95.5l137 96q30 -55 88 -55q35 0 56.5 22t21.5 56q0 38 -23 59.5t-62 21.5t-73 -24z" />
<glyph unicode="6" horiz-adv-x="640" d="M583 235q0 -108 -75 -177.5t-182 -69.5q-111 0 -190 70t-79 177q0 87 57 173l203 304l202 -36l-144 -224q85 -14 146.5 -73t61.5 -144zM243 235q0 -34 22.5 -57t54.5 -23t54.5 23t22.5 57t-22.5 57t-54.5 23t-54.5 -23t-22.5 -57z" />
<glyph unicode="7" horiz-adv-x="640" d="M543 700l46 -86l-250 -626l-205 33l201 497h-244v182h452z" />
<glyph unicode="8" horiz-adv-x="640" d="M320 -12q-114 0 -191.5 66.5t-77.5 163.5q0 116 102 174q-58 49 -58 125q0 82 62 138.5t163 56.5t163 -56.5t62 -138.5q0 -76 -58 -125q102 -58 102 -174q0 -97 -77.5 -163.5t-191.5 -66.5zM242 235q0 -34 22.5 -56t55.5 -22t55.5 22t22.5 56t-22.5 56t-55.5 22 t-55.5 -22t-22.5 -56zM258 501q0 -26 18 -44t44 -18t44 18t18 44t-18 44t-44 18t-44 -18t-18 -44z" />
<glyph unicode="9" horiz-adv-x="640" d="M57 465q0 108 75 177.5t182 69.5q111 0 190 -70t79 -177q0 -87 -57 -173l-203 -304l-202 36l144 224q-85 14 -146.5 73t-61.5 144zM397 465q0 34 -22.5 57t-54.5 23t-54.5 -23t-22.5 -57t22.5 -57t54.5 -23t54.5 23t22.5 57z" />
<glyph unicode=":" horiz-adv-x="320" d="M53 96q0 45 31 76.5t76 31.5t76 -31.5t31 -76.5t-31 -76.5t-76 -31.5t-76 31.5t-31 76.5zM53 424q0 45 31 76.5t76 31.5t76 -31.5t31 -76.5t-31 -76.5t-76 -31.5t-76 31.5t-31 76.5z" />
<glyph unicode=";" horiz-adv-x="320" d="M53 424q0 45 31 76.5t76 31.5t76 -31.5t31 -76.5t-31 -76.5t-76 -31.5t-76 31.5t-31 76.5zM1 -140l78 337l188 -24l-122 -330z" />
<glyph unicode="&#x3c;" horiz-adv-x="634" d="M62 292v80l480 255l30 -178l-241 -117l241 -117l-30 -178z" />
<glyph unicode="=" horiz-adv-x="634" d="M572 131h-510v148h510v-148zM572 385h-510v148h510v-148z" />
<glyph unicode="&#x3e;" horiz-adv-x="634" d="M572 372v-80l-480 -255l-30 178l241 117l-241 117l30 178z" />
<glyph unicode="?" horiz-adv-x="555" d="M375 283l17 -53q-48 -23 -106 -23q-61 0 -97.5 30t-36.5 77q0 74 91 124q37 21 54 40t17 45q0 23 -16.5 37t-44.5 14q-53 0 -81 -59l-142 38q27 73 91 116t155 43q108 0 175.5 -51.5t67.5 -125.5q0 -123 -136 -182q-51 -22 -68 -34t-17 -26q0 -20 34 -20q23 0 43 10z M174 84q0 42 31.5 69t77.5 27t77.5 -27t31.5 -69t-31.5 -69t-77.5 -27t-77.5 27t-31.5 69z" />
<glyph unicode="@" horiz-adv-x="934" d="M536 422v45h149v-256q0 -72 55 -72q39 0 64 42.5t25 114.5q0 148 -104.5 252t-261.5 104q-148 0 -253 -111t-105 -267q0 -154 107.5 -265t263.5 -111q133 0 239 69q4 -9 12.5 -27t13.5 -27q-123 -75 -265 -75q-121 0 -223 61.5t-159 161.5t-57 213t56 214t155 162.5 t215 61.5q183 0 308.5 -124.5t125.5 -291.5q0 -103 -54 -166t-152 -63q-110 0 -154 65q-44 -64 -126 -64q-80 0 -132 59t-52 146t52 145.5t132 58.5q75 0 125 -55zM522 273q0 30 -21 51.5t-52 21.5t-52 -21.5t-21 -51.5t21 -51.5t52 -21.5t52 21.5t21 51.5z" />
<glyph unicode="A" horiz-adv-x="708" d="M459 108h-210l-42 -120l-193 23l280 691h120l280 -691l-193 -23zM292 235h124l-62 176z" />
<glyph unicode="B" horiz-adv-x="601" d="M288 0h-224v700h222q116 0 178.5 -50.5t62.5 -133.5q0 -97 -79 -144q122 -48 122 -170q0 -93 -70.5 -147.5t-211.5 -54.5zM255 146h31q44 0 69 20t25 56t-25.5 56.5t-69.5 20.5h-30v-153zM255 440h32q66 0 66 57t-67 57h-31v-114z" />
<glyph unicode="C" horiz-adv-x="743" d="M37 350q0 159 109.5 260.5t262.5 101.5q93 0 172 -37t133 -99l-153 -117q-58 73 -148 73q-73 0 -125.5 -51.5t-52.5 -130.5t52.5 -130.5t125.5 -51.5q90 0 148 73l153 -117q-54 -62 -133 -99t-172 -37q-153 0 -262.5 101.5t-109.5 260.5z" />
<glyph unicode="D" horiz-adv-x="693" d="M285 0h-221v700h221q160 0 265.5 -97t105.5 -253t-105.5 -253t-265.5 -97zM268 526v-352h23q77 0 119 46t42 130t-42 130t-119 46h-23z" />
<glyph unicode="E" horiz-adv-x="528" d="M484 150v-150h-420v700h412v-150h-208v-111h187v-150h-187v-139h216z" />
<glyph unicode="F" horiz-adv-x="508" d="M268 0h-204v700h407v-150h-203v-117h182v-150h-182v-283z" />
<glyph unicode="G" horiz-adv-x="794" d="M409 -12q-151 0 -261.5 103t-110.5 259q0 103 52.5 187t138 129.5t185.5 45.5q92 0 174 -40t135 -105l-156 -116q-57 81 -153 81q-73 0 -125.5 -52t-52.5 -130q0 -79 52.5 -130.5t120.5 -51.5q56 0 99 24.5t58 68.5h-137v136h329v-77q0 -147 -97 -239.5t-251 -92.5z" />
<glyph unicode="H" horiz-adv-x="697" d="M429 700h204v-700h-204v277h-161v-277h-204v700h204v-249h161v249z" />
<glyph unicode="I" horiz-adv-x="350" d="M73 700h204v-700h-204v700z" />
<glyph unicode="J" horiz-adv-x="558" d="M0 120l151 93q11 -23 31 -37t42 -14q31 0 48.5 20.5t17.5 57.5v460h204v-463q0 -116 -68.5 -182.5t-184.5 -66.5q-159 0 -241 132z" />
<glyph unicode="K" horiz-adv-x="686" d="M473 -12l-207 320v-308h-204v700h204v-292l190 304l194 -48l-201 -305l227 -321z" />
<glyph unicode="L" horiz-adv-x="514" d="M64 700h204v-526h224v-174h-428v700z" />
<glyph unicode="M" horiz-adv-x="1006" d="M563 -2h-120l-133 352l-84 -362l-208 25l212 689h120l153 -396l153 396h120l212 -689l-208 -25l-84 362z" />
<glyph unicode="N" horiz-adv-x="738" d="M566 -8l-303 346v-338h-199v688l108 20l303 -345v337h199v-688z" />
<glyph unicode="O" horiz-adv-x="830" d="M793 350q0 -155 -111 -258.5t-267 -103.5t-267 103.5t-111 258.5t111 258.5t267 103.5t267 -103.5t111 -258.5zM235 350q0 -78 52.5 -130t127.5 -52t127.5 52t52.5 130t-52.5 130t-127.5 52t-127.5 -52t-52.5 -130z" />
<glyph unicode="P" horiz-adv-x="591" d="M263 389h31q35 0 57 19.5t22 52.5q0 34 -22 53.5t-57 19.5h-31v-145zM263 223v-223h-199v700h217q128 0 205 -68t77 -171q0 -106 -82 -172t-218 -66z" />
<glyph unicode="Q" horiz-adv-x="833" d="M793 350q0 -129 -81 -226l99 -91l-123 -112l-110 101q-77 -34 -163 -34q-156 0 -267 103.5t-111 258.5t111 258.5t267 103.5t267 -103.5t111 -258.5zM235 350q0 -78 52.5 -130t127.5 -52t127.5 52t52.5 130t-52.5 130t-127.5 52t-127.5 -52t-52.5 -130z" />
<glyph unicode="R" horiz-adv-x="636" d="M421 -12l-158 239v-227h-199v700h218q122 0 197 -68.5t75 -162.5q0 -129 -120 -188l197 -269zM263 534v-146h24q32 0 53 18t21 55t-21 55t-53 18h-24z" />
<glyph unicode="S" horiz-adv-x="574" d="M367 434q88 -35 130.5 -89.5t42.5 -135.5q0 -99 -67.5 -160t-184.5 -61q-77 0 -145 27.5t-114 77.5l96 141q63 -76 143 -76q30 0 49 15.5t19 41.5q0 27 -16 45t-61 34q-193 69 -193 222q0 84 61 140t162 56q119 0 214 -75l-86 -126q-43 41 -94 41q-24 0 -38.5 -11 t-14.5 -28q0 -23 19.5 -39.5t77.5 -39.5z" />
<glyph unicode="T" horiz-adv-x="556" d="M30 526v174h496v-174h-146v-526h-204v526h-146z" />
<glyph unicode="U" horiz-adv-x="690" d="M345 -12q-115 0 -198 76t-83 203v433h204v-448q0 -43 20.5 -66.5t56.5 -23.5t56.5 23.5t20.5 66.5v448h204v-433q0 -127 -83 -203t-198 -76z" />
<glyph unicode="V" horiz-adv-x="716" d="M698 689l-279 -691h-122l-279 691l193 23l147 -406l147 406z" />
<glyph unicode="W" horiz-adv-x="1036" d="M458 702h120l120 -352l112 362l208 -25l-251 -689h-120l-129 368l-129 -368h-120l-251 689l208 25l112 -362z" />
<glyph unicode="X" horiz-adv-x="710" d="M485 -12l-130 229l-130 -229l-211 30l206 347l-185 318l208 29l112 -201l112 201l208 -29l-185 -318l206 -347z" />
<glyph unicode="Y" horiz-adv-x="710" d="M457 266v-266h-204v266l-237 416l212 30l127 -259l127 259l212 -30z" />
<glyph unicode="Z" horiz-adv-x="602" d="M559 0h-484l-37 89l239 435h-207v176h449l37 -89l-239 -435h242v-176z" />
<glyph unicode="[" horiz-adv-x="431" d="M112 -130v880h289v-146h-112v-588h112v-146h-289z" />
<glyph unicode="\" horiz-adv-x="593" d="M2 724l176 24l413 -834l-176 -24z" />
<glyph unicode="]" horiz-adv-x="431" d="M319 750v-880h-289v146h112v588h-112v146h289z" />
<glyph unicode="^" horiz-adv-x="654" d="M289 700h76l217 -291l-143 -77l-112 153l-112 -153l-143 77z" />
<glyph unicode="_" horiz-adv-x="500" d="M0 -190v108h500v-108h-500z" />
<glyph unicode="`" horiz-adv-x="424" d="M94 668l72 88l164 -130l-70 -85z" />
<glyph unicode="a" d="M587 468v-468h-178v56q-23 -31 -63 -49.5t-89 -18.5q-96 0 -161 71t-65 175t65 175t161 71q49 0 89 -18.5t63 -49.5v56h178zM213 234q0 -38 26.5 -64t63.5 -26t63.5 26t26.5 64t-26.5 64t-63.5 26t-63.5 -26t-26.5 -64z" />
<glyph unicode="b" d="M55 0v750h178v-338q23 31 63 49.5t89 18.5q96 0 161 -71t65 -175t-65 -175t-161 -71q-49 0 -89 18.5t-63 49.5v-56h-178zM429 234q0 38 -26.5 64t-63.5 26t-63.5 -26t-26.5 -64t26.5 -64t63.5 -26t63.5 26t26.5 64z" />
<glyph unicode="c" horiz-adv-x="516" d="M28 234q0 103 74.5 174.5t180.5 71.5q63 0 120 -26t96 -74l-128 -98q-32 42 -80 42q-38 0 -62.5 -25.5t-24.5 -64.5t24.5 -64.5t62.5 -25.5q48 0 80 42l128 -98q-39 -48 -96 -74t-120 -26q-106 0 -180.5 71.5t-74.5 174.5z" />
<glyph unicode="d" d="M587 750v-750h-178v56q-23 -31 -63 -49.5t-89 -18.5q-96 0 -161 71t-65 175t65 175t161 71q49 0 89 -18.5t63 -49.5v338h178zM213 234q0 -38 26.5 -64t63.5 -26t63.5 26t26.5 64t-26.5 64t-63.5 26t-63.5 -26t-26.5 -64z" />
<glyph unicode="e" horiz-adv-x="575" d="M547 233q0 -28 -1 -36h-338q4 -38 31 -60t63 -22q60 0 92 54l129 -71q-83 -110 -230 -110q-112 0 -188.5 71t-76.5 175q0 103 76.5 174.5t186.5 71.5q105 0 180.5 -72t75.5 -175zM210 298h172q-7 30 -30.5 48t-55.5 18t-55.5 -18t-30.5 -48z" />
<glyph unicode="f" horiz-adv-x="426" d="M30 328v140h71v86q0 97 50.5 152t140.5 55q102 0 178 -76l-95 -90q-20 26 -49 26q-47 0 -47 -66v-87h117v-140h-117v-328h-178v328h-71z" />
<glyph unicode="g" d="M409 3v53q-23 -31 -63 -49.5t-89 -18.5q-96 0 -161 71t-65 175t65 175t161 71q49 0 89 -18.5t63 -49.5v56h178v-451q0 -149 -74.5 -224t-210.5 -75q-71 0 -132 27t-99 77q3 3 48.5 44t69.5 62q44 -54 106 -54q52 0 83 32.5t31 96.5zM213 234q0 -38 26.5 -64t63.5 -26 t63.5 26t26.5 64t-26.5 64t-63.5 26t-63.5 -26t-26.5 -64z" />
<glyph unicode="h" horiz-adv-x="577" d="M346 0v267q0 27 -16.5 44t-40.5 17t-40 -17t-16 -43v-268h-178v750h178v-332q23 27 59.5 44.5t77.5 17.5q67 0 110.5 -46t43.5 -124v-310h-178z" />
<glyph unicode="i" horiz-adv-x="298" d="M238 468v-468h-178v468h178zM53 646q0 40 28 68t68 28t68 -28t28 -68t-28 -68t-68 -28t-68 28t-28 68z" />
<glyph unicode="j" horiz-adv-x="321" d="M-147 -195l117 107q26 -34 59 -34q28 0 43 18.5t15 50.5v521h178v-527q0 -106 -57.5 -164.5t-161.5 -58.5q-57 0 -108 22.5t-85 64.5zM80 646q0 40 28 68t68 28t68 -28t28 -68t-28 -68t-68 -28t-68 28t-28 68z" />
<glyph unicode="k" horiz-adv-x="604" d="M233 750v-449l147 179l197 -26l-177 -209l194 -231l-204 -26l-157 199v-187h-178v750h178z" />
<glyph unicode="l" horiz-adv-x="296" d="M237 750v-750h-178v750h178z" />
<glyph unicode="m" horiz-adv-x="866" d="M635 0v268q0 26 -16 43t-40 17t-40 -17t-16 -43v-268h-178v268q0 26 -16 43t-40 17t-40 -17t-16 -43v-268h-178v468h178v-50q22 27 58 44.5t75 17.5q93 0 135 -73q61 73 158 73q67 0 110.5 -46.5t43.5 -124.5v-309h-178z" />
<glyph unicode="n" horiz-adv-x="577" d="M346 0v267q0 27 -16.5 44t-40.5 17t-40 -17t-16 -43v-268h-178v468h178v-50q23 27 59.5 44.5t77.5 17.5q67 0 110.5 -46t43.5 -124v-310h-178z" />
<glyph unicode="o" horiz-adv-x="578" d="M550 234q0 -103 -75.5 -174.5t-185.5 -71.5t-185.5 71.5t-75.5 174.5t75.5 174.5t185.5 71.5t185.5 -71.5t75.5 -174.5zM199 234q0 -38 26.5 -64t63.5 -26t63.5 26t26.5 64t-26.5 64t-63.5 26t-63.5 -26t-26.5 -64z" />
<glyph unicode="p" d="M55 -282v750h178v-56q23 31 63 49.5t89 18.5q96 0 161 -71t65 -175t-65 -175t-161 -71q-49 0 -89 18.5t-63 49.5v-338h-178zM429 234q0 38 -26.5 64t-63.5 26t-63.5 -26t-26.5 -64t26.5 -64t63.5 -26t63.5 26t26.5 64z" />
<glyph unicode="q" d="M587 468v-750h-178v338q-23 -31 -63 -49.5t-89 -18.5q-96 0 -161 71t-65 175t65 175t161 71q49 0 89 -18.5t63 -49.5v56h178zM213 234q0 -38 26.5 -64t63.5 -26t63.5 26t26.5 64t-26.5 64t-63.5 26t-63.5 -26t-26.5 -64z" />
<glyph unicode="r" horiz-adv-x="439" d="M436 463l-51 -153q-28 18 -68 18t-62 -25.5t-22 -67.5v-235h-178v468h178v-59q18 31 52 51t73 20q44 0 78 -17z" />
<glyph unicode="s" horiz-adv-x="426" d="M392 147q0 -70 -47.5 -114.5t-132.5 -44.5q-115 0 -190 74l76 111q46 -52 85 -52q36 0 36 28q0 29 -45 49q-121 55 -121 144q0 61 46 99.5t122 38.5q88 0 157 -51l-67 -96q-22 25 -54 25q-31 0 -31 -20q0 -18 59 -46q107 -51 107 -145z" />
<glyph unicode="t" horiz-adv-x="399" d="M30 328v140h71v132h178v-132h98v-140h-98v-328h-178v328h-71z" />
<glyph unicode="u" horiz-adv-x="579" d="M233 468v-267q0 -27 16.5 -44t40.5 -17t40 17t16 43v268h178v-468h-178v50q-23 -27 -59.5 -44.5t-77.5 -17.5q-67 0 -110.5 46t-43.5 124v310h178z" />
<glyph unicode="v" horiz-adv-x="526" d="M317 -2h-108l-198 459l177 23l75 -244l75 244l177 -23z" />
<glyph unicode="w" horiz-adv-x="816" d="M353 470h110l88 -226l79 236l177 -23l-202 -459h-109l-88 223l-88 -223h-109l-202 459l177 23l79 -236z" />
<glyph unicode="x" horiz-adv-x="532" d="M338 -12l-72 146l-72 -146l-180 27l130 227l-118 211l179 27l61 -130l61 130l179 -27l-118 -211l130 -227z" />
<glyph unicode="y" horiz-adv-x="554" d="M539 456l-269 -750l-178 24l105 284l-182 442l179 24l86 -277l80 277z" />
<glyph unicode="z" horiz-adv-x="467" d="M430 0h-372l-25 63l156 263h-129v142h338l25 -63l-159 -263h166v-142z" />
<glyph unicode="{" horiz-adv-x="465" d="M72 276v68q86 28 86 131v78q0 89 52.5 143t137.5 54h87v-147h-18q-44 0 -63 -23t-19 -73v-40q0 -110 -96 -157q96 -47 96 -157v-40q0 -50 19 -73t63 -23h18v-147h-87q-85 0 -137.5 54t-52.5 143v78q0 103 -86 131z" />
<glyph unicode="|" horiz-adv-x="346" d="M90 -200v969h166v-969h-166z" />
<glyph unicode="}" horiz-adv-x="465" d="M393 344v-68q-86 -28 -86 -131v-78q0 -89 -52.5 -143t-137.5 -54h-87v147h18q44 0 63 23t19 73v40q0 110 96 157q-96 47 -96 157v40q0 50 -19 73t-63 23h-18v147h87q85 0 137.5 -54t52.5 -143v-78q0 -103 86 -131z" />
<glyph unicode="~" horiz-adv-x="634" d="M429 449l161 -21q-5 -108 -48 -163.5t-110 -55.5q-66 0 -124 47q-49 37 -69 37q-18 0 -25.5 -15.5t-8.5 -64.5l-161 21q5 108 48 163.5t110 55.5q65 0 123 -47q49 -37 70 -37q18 0 25.5 15.5t8.5 64.5z" />
<glyph unicode="&#xa1;" horiz-adv-x="382" d="M307 -233h-204v474h204v-474zM205 479q46 0 77.5 -27t31.5 -68q0 -42 -31.5 -69.5t-77.5 -27.5t-77.5 27.5t-31.5 69.5q0 41 31.5 68t77.5 27z" />
<glyph unicode="&#xa2;" horiz-adv-x="516" d="M28 234q0 86 54 151t136 86v85h119v-82q96 -17 162 -94l-127 -99q-32 42 -79 42q-37 0 -63 -25.5t-26 -63.5t26 -63.5t63 -25.5q47 0 79 42l127 -99q-66 -77 -162 -94v-82h-119v85q-82 21 -136 86t-54 151z" />
<glyph unicode="&#xa3;" horiz-adv-x="614" d="M128 372v116q0 98 61 161t167 63q123 0 207 -81l-86 -128q-36 42 -78 42q-31 0 -49 -19t-18 -52v-102h132v-68h-132v-17q0 -78 -28 -121h273v-166h-488l-36 89q34 32 54.5 77.5t20.5 83.5v54h-70v68h70z" />
<glyph unicode="&#xa4;" horiz-adv-x="722" d="M587 332q0 -44 -19 -87l90 -92l-110 -110l-91 92q-46 -22 -96 -22t-96 22l-91 -92l-110 110l90 92q-19 43 -19 87t19 87l-90 92l110 110l91 -92q46 22 96 22t96 -22l91 92l110 -110l-90 -92q19 -43 19 -87zM433 332q0 31 -20.5 52t-51.5 21t-51.5 -21t-20.5 -52t20.5 -52 t51.5 -21t51.5 21t20.5 52z" />
<glyph unicode="&#xa5;" horiz-adv-x="710" d="M95 232h158v34l-4 7h-154v66h117l-196 343l212 30l127 -259l127 259l212 -30l-196 -343h117v-66h-154l-4 -7v-34h158v-66h-158v-166h-204v166h-158v66z" />
<glyph unicode="&#xa6;" horiz-adv-x="346" d="M90 236h166v-352h-166v352zM90 704h166v-352h-166v352z" />
<glyph unicode="&#xa7;" horiz-adv-x="534" d="M432 38q0 -61 -45 -99t-116 -38q-93 0 -160 61l64 89q23 -29 52 -29q39 0 39 36q0 18 -16 32.5t-61 38.5q-119 63 -119 179q0 47 23.5 87t65.5 65q-57 48 -57 114q0 61 45 99t116 38q93 0 160 -61l-64 -89q-23 29 -52 29q-39 0 -39 -36q0 -18 16 -32.5t61 -38.5 q119 -63 119 -179q0 -47 -23.5 -87t-65.5 -65q57 -48 57 -114zM212 306q0 -24 16 -39.5t39 -15.5t39 15.5t16 39.5t-16 39.5t-39 15.5t-39 -15.5t-16 -39.5z" />
<glyph unicode="&#xa8;" horiz-adv-x="424" d="M38 649q0 30 21 51t51 21t51 -21t21 -51t-21 -51t-51 -21t-51 21t-21 51zM242 649q0 30 21 51t51 21t51 -21t21 -51t-21 -51t-51 -21t-51 21t-21 51z" />
<glyph unicode="&#xa9;" horiz-adv-x="814" d="M45 350q0 150 106 256t256 106t256 -106t106 -256t-106 -256t-256 -106t-256 106t-106 256zM713 350q0 129 -89.5 219.5t-216.5 90.5t-216.5 -90.5t-89.5 -219.5t89.5 -219.5t216.5 -90.5t216.5 90.5t89.5 219.5zM354 350q0 -30 20 -50.5t50 -20.5q39 0 61 33l101 -76 q-61 -79 -170 -79q-83 0 -141.5 56t-58.5 137t58.5 137t141.5 56q109 0 170 -79l-101 -76q-22 33 -61 33q-31 0 -50.5 -20.5t-19.5 -50.5z" />
<glyph unicode="&#xaa;" horiz-adv-x="466" d="M426 700v-334h-132v34q-39 -46 -108 -46q-70 0 -115.5 51.5t-45.5 127.5t45.5 127.5t115.5 51.5q69 0 108 -46v34h132zM157 533q0 -26 18.5 -44.5t44.5 -18.5t44.5 18.5t18.5 44.5t-18.5 44.5t-44.5 18.5t-44.5 -18.5t-18.5 -44.5z" />
<glyph unicode="&#xab;" horiz-adv-x="630" d="M37 283v58l257 181l25 -122l-131 -88l131 -88l-25 -122zM312 283v58l257 181l24 -122l-130 -88l130 -88l-24 -122z" />
<glyph unicode="&#xac;" horiz-adv-x="634" d="M51 304v148h530v-297h-178v149h-352z" />
<glyph unicode="&#xad;" horiz-adv-x="406" d="M354 258h-302v148h302v-148z" />
<glyph unicode="&#xae;" horiz-adv-x="814" d="M45 350q0 150 106 256t256 106t256 -106t106 -256t-106 -256t-256 -106t-256 106t-106 256zM713 350q0 129 -89.5 219.5t-216.5 90.5t-216.5 -90.5t-89.5 -219.5t89.5 -219.5t216.5 -90.5t216.5 90.5t89.5 219.5zM474 156l-80 122v-115h-136v380h164q66 0 107 -37.5 t41 -87.5q0 -72 -63 -108l104 -141zM394 451v-85h10q38 0 38 44q0 41 -38 41h-10z" />
<glyph unicode="&#xaf;" horiz-adv-x="500" d="M0 595v108h500v-108h-500z" />
<glyph unicode="&#xb0;" horiz-adv-x="400" d="M345 571q0 -60 -43 -100.5t-102 -40.5t-102 40.5t-43 100.5t43 100.5t102 40.5t102 -40.5t43 -100.5zM154 571q0 -20 13.5 -33t32.5 -13t32.5 13t13.5 33t-13.5 33t-32.5 13t-32.5 -13t-13.5 -33z" />
<glyph unicode="&#xb1;" horiz-adv-x="634" d="M228 190v163h-166v149h166v163h178v-163h166v-149h-166v-163h-178zM572 7h-510v148h510v-148z" />
<glyph unicode="&#xb2;" horiz-adv-x="414" d="M66 242l-26 59q11 14 155 197q29 36 29 66q0 13 -9 21.5t-22 8.5q-31 0 -49 -36q-82 36 -101 44q24 52 68 81t97 29q68 0 109.5 -41t41.5 -102q0 -64 -50 -127l-65 -83h123v-117h-301z" />
<glyph unicode="&#xb3;" horiz-adv-x="414" d="M155 443l-33 58q38 50 65 85h-125v114h266l32 -58l-89 -123q95 -41 95 -137q0 -63 -46 -107.5t-125 -44.5q-111 0 -163 87q83 61 91 67q23 -38 59 -38q21 0 34 13.5t13 35.5q0 25 -16.5 37.5t-40.5 12.5q-5 0 -17 -2z" />
<glyph unicode="&#xb4;" horiz-adv-x="424" d="M258 756l72 -88l-166 -127l-70 85z" />
<glyph unicode="&#xb5;" horiz-adv-x="579" d="M233 468v-267q0 -27 16.5 -44t40.5 -17t40 17t16 43v268h178v-468h-178v50q-36 -48 -103 -48h-10v-195h-178v661h178z" />
<glyph unicode="&#xb6;" horiz-adv-x="652" d="M252 700h327v-831h-132v700h-42v-700h-132v398h-9q-98 0 -166 59t-68 159t62 157.5t160 57.5z" />
<glyph unicode="&#xb7;" horiz-adv-x="320" d="M53 334q0 45 31 76.5t76 31.5t76 -31.5t31 -76.5t-31 -76.5t-76 -31.5t-76 31.5t-31 76.5z" />
<glyph unicode="&#xb8;" horiz-adv-x="424" d="M143 -101l-9 26l36 77h102l-24 -49q63 -20 63 -87q0 -44 -34.5 -74t-89.5 -30q-63 0 -105 28l48 72q14 -10 36 -10q26 0 26 21q0 26 -49 26z" />
<glyph unicode="&#xb9;" horiz-adv-x="414" d="M243 712l62 -17v-453h-136v301l-61 -34l-56 97z" />
<glyph unicode="&#xba;" horiz-adv-x="466" d="M421 533q0 -75 -54.5 -127t-134.5 -52q-78 0 -132.5 52t-54.5 127t54.5 127t132.5 52q80 0 134.5 -52t54.5 -127zM170 533q0 -26 18.5 -44.5t44.5 -18.5t44.5 18.5t18.5 44.5t-18.5 44.5t-44.5 18.5t-44.5 -18.5t-18.5 -44.5z" />
<glyph unicode="&#xbb;" horiz-adv-x="630" d="M593 341v-58l-257 -181l-25 122l131 88l-131 88l25 122zM318 341v-58l-257 -181l-24 122l130 88l-130 88l24 122z" />
<glyph unicode="&#xbc;" horiz-adv-x="1000" d="M237 712l62 -17v-453h-136v301l-61 -34l-56 97zM634 715l80 -43l-368 -687l-80 43zM591 80l-23 56l227 334l98 -6v-276h48v-108h-48v-74h-123v74h-179zM704 188h66v98z" />
<glyph unicode="&#xbd;" horiz-adv-x="1002" d="M237 712l62 -17v-453h-136v301l-61 -34l-56 97zM634 715l80 -43l-368 -687l-80 43zM649 2l-26 59q11 14 155 197q29 36 29 66q0 13 -9 21.5t-22 8.5q-31 0 -49 -36q-82 36 -101 44q24 52 68 81t97 29q68 0 109.5 -41t41.5 -102q0 -64 -50 -127l-65 -83h123v-117h-301z " />
<glyph unicode="&#xbe;" horiz-adv-x="1003" d="M152 443l-33 58q38 50 65 85h-125v114h266l32 -58l-89 -123q95 -41 95 -137q0 -63 -46 -107.5t-125 -44.5q-111 0 -163 87q83 61 91 67q23 -38 59 -38q21 0 34 13.5t13 35.5q0 25 -16.5 37.5t-40.5 12.5q-5 0 -17 -2zM637 715l80 -43l-368 -687l-80 43zM594 76l-23 56 l227 334l98 -6v-276h48v-108h-48v-74h-123v74h-179zM707 184h66v98z" />
<glyph unicode="&#xbf;" horiz-adv-x="555" d="M187 181l-17 53q48 23 106 23q61 0 97.5 -30t36.5 -77q0 -74 -91 -124q-37 -21 -54 -40t-17 -45q0 -23 16.5 -37t44.5 -14q53 0 81 59l142 -38q-27 -73 -91 -116t-155 -43q-108 0 -175.5 51.5t-67.5 125.5q0 123 136 182q51 22 68 34t17 26q0 20 -34 20q-23 0 -43 -10z M388 380q0 -42 -31.5 -69t-77.5 -27t-77.5 27t-31.5 69t31.5 69t77.5 27t77.5 -27t31.5 -69z" />
<glyph unicode="&#xc0;" horiz-adv-x="708" d="M459 108h-210l-42 -120l-193 23l280 691h120l280 -691l-193 -23zM292 235h124l-62 176zM202 872l72 88l164 -130l-70 -85z" />
<glyph unicode="&#xc1;" horiz-adv-x="708" d="M459 108h-210l-42 -120l-193 23l280 691h120l280 -691l-193 -23zM292 235h124l-62 176zM434 960l72 -88l-166 -127l-70 85z" />
<glyph unicode="&#xc2;" horiz-adv-x="708" d="M459 108h-210l-42 -120l-193 23l280 691h120l280 -691l-193 -23zM292 235h124l-62 176zM374 960l164 -131l-70 -84l-114 88l-114 -88l-70 84l164 131h40z" />
<glyph unicode="&#xc3;" horiz-adv-x="708" d="M459 108h-210l-42 -120l-193 23l280 691h120l280 -691l-193 -23zM292 235h124l-62 176zM438 931l97 -23q-9 -66 -38.5 -100.5t-75.5 -34.5q-41 0 -81 33q-23 20 -39 20q-24 0 -30 -50l-97 23q9 66 38.5 100.5t75.5 34.5q41 0 81 -33q23 -20 39 -20q24 0 30 50z" />
<glyph unicode="&#xc4;" horiz-adv-x="708" d="M459 108h-210l-42 -120l-193 23l280 691h120l280 -691l-193 -23zM292 235h124l-62 176zM180 853q0 30 21 51t51 21t51 -21t21 -51t-21 -51t-51 -21t-51 21t-21 51zM384 853q0 30 21 51t51 21t51 -21t21 -51t-21 -51t-51 -21t-51 21t-21 51z" />
<glyph unicode="&#xc5;" horiz-adv-x="708" d="M459 108h-210l-42 -120l-193 23l280 691h120l280 -691l-193 -23zM292 235h124l-62 176zM469 853q0 -47 -34 -78.5t-81 -31.5t-81 31.5t-34 78.5t34 78.5t81 31.5t81 -31.5t34 -78.5zM319 853q0 -15 10 -25t25 -10t25 10t10 25t-10 25t-25 10t-25 -10t-10 -25z" />
<glyph unicode="&#xc6;" horiz-adv-x="900" d="M856 150v-150h-413v108h-170l-67 -120l-199 27l381 685h459v-151h-208v-110h187v-150h-187v-139h217zM341 235h102v191z" />
<glyph unicode="&#xc7;" horiz-adv-x="743" d="M340 -101l-9 26l31 66q-138 16 -231.5 114.5t-93.5 244.5q0 159 109.5 260.5t262.5 101.5q93 0 172 -37t133 -99l-153 -117q-58 73 -148 73q-73 0 -125.5 -51.5t-52.5 -130.5t52.5 -130.5t125.5 -51.5q90 0 148 73l153 -117q-98 -113 -250 -132l-19 -39q63 -20 63 -87 q0 -44 -34.5 -74t-89.5 -30q-63 0 -105 28l48 72q14 -10 36 -10q26 0 26 21q0 26 -49 26z" />
<glyph unicode="&#xc8;" horiz-adv-x="528" d="M484 150v-150h-420v700h412v-150h-208v-111h187v-150h-187v-139h216zM148 872l72 88l164 -130l-70 -85z" />
<glyph unicode="&#xc9;" horiz-adv-x="528" d="M484 150v-150h-420v700h412v-150h-208v-111h187v-150h-187v-139h216zM326 960l72 -88l-166 -127l-70 85z" />
<glyph unicode="&#xca;" horiz-adv-x="528" d="M484 150v-150h-420v700h412v-150h-208v-111h187v-150h-187v-139h216zM289 960l164 -131l-70 -84l-114 88l-114 -88l-70 84l164 131h40z" />
<glyph unicode="&#xcb;" horiz-adv-x="528" d="M484 150v-150h-420v700h412v-150h-208v-111h187v-150h-187v-139h216zM95 853q0 30 21 51t51 21t51 -21t21 -51t-21 -51t-51 -21t-51 21t-21 51zM299 853q0 30 21 51t51 21t51 -21t21 -51t-21 -51t-51 -21t-51 21t-21 51z" />
<glyph unicode="&#xcc;" horiz-adv-x="350" d="M73 700h204v-700h-204v700zM38 872l72 88l164 -130l-70 -85z" />
<glyph unicode="&#xcd;" horiz-adv-x="350" d="M73 700h204v-700h-204v700zM240 960l72 -88l-166 -127l-70 85z" />
<glyph unicode="&#xce;" horiz-adv-x="350" d="M73 700h204v-700h-204v700zM195 960l164 -131l-70 -84l-114 88l-114 -88l-70 84l164 131h40z" />
<glyph unicode="&#xcf;" horiz-adv-x="350" d="M73 700h204v-700h-204v700zM1 853q0 30 21 51t51 21t51 -21t21 -51t-21 -51t-51 -21t-51 21t-21 51zM205 853q0 30 21 51t51 21t51 -21t21 -51t-21 -51t-51 -21t-51 21t-21 51z" />
<glyph unicode="&#xd0;" horiz-adv-x="700" d="M8 299v100h63v301h221q160 0 265.5 -97t105.5 -253t-105.5 -253t-265.5 -97h-221v299h-63zM275 526v-127h89v-100h-89v-125h23q77 0 119 46t42 130t-42 130t-119 46h-23z" />
<glyph unicode="&#xd1;" horiz-adv-x="738" d="M566 -8l-303 346v-338h-199v688l108 20l303 -345v337h199v-688zM453 931l97 -23q-9 -66 -38.5 -100.5t-75.5 -34.5q-41 0 -81 33q-23 20 -39 20q-24 0 -30 -50l-97 23q9 66 38.5 100.5t75.5 34.5q41 0 81 -33q23 -20 39 -20q24 0 30 50z" />
<glyph unicode="&#xd2;" horiz-adv-x="830" d="M793 350q0 -155 -111 -258.5t-267 -103.5t-267 103.5t-111 258.5t111 258.5t267 103.5t267 -103.5t111 -258.5zM235 350q0 -78 52.5 -130t127.5 -52t127.5 52t52.5 130t-52.5 130t-127.5 52t-127.5 -52t-52.5 -130zM270 872l72 88l164 -130l-70 -85z" />
<glyph unicode="&#xd3;" horiz-adv-x="830" d="M793 350q0 -155 -111 -258.5t-267 -103.5t-267 103.5t-111 258.5t111 258.5t267 103.5t267 -103.5t111 -258.5zM235 350q0 -78 52.5 -130t127.5 -52t127.5 52t52.5 130t-52.5 130t-127.5 52t-127.5 -52t-52.5 -130zM488 960l72 -88l-166 -127l-70 85z" />
<glyph unicode="&#xd4;" horiz-adv-x="830" d="M793 350q0 -155 -111 -258.5t-267 -103.5t-267 103.5t-111 258.5t111 258.5t267 103.5t267 -103.5t111 -258.5zM235 350q0 -78 52.5 -130t127.5 -52t127.5 52t52.5 130t-52.5 130t-127.5 52t-127.5 -52t-52.5 -130zM435 960l164 -131l-70 -84l-114 88l-114 -88l-70 84 l164 131h40z" />
<glyph unicode="&#xd5;" horiz-adv-x="830" d="M793 350q0 -155 -111 -258.5t-267 -103.5t-267 103.5t-111 258.5t111 258.5t267 103.5t267 -103.5t111 -258.5zM235 350q0 -78 52.5 -130t127.5 -52t127.5 52t52.5 130t-52.5 130t-127.5 52t-127.5 -52t-52.5 -130zM499 931l97 -23q-9 -66 -38.5 -100.5t-75.5 -34.5 q-41 0 -81 33q-23 20 -39 20q-24 0 -30 -50l-97 23q9 66 38.5 100.5t75.5 34.5q41 0 81 -33q23 -20 39 -20q24 0 30 50z" />
<glyph unicode="&#xd6;" horiz-adv-x="830" d="M793 350q0 -155 -111 -258.5t-267 -103.5t-267 103.5t-111 258.5t111 258.5t267 103.5t267 -103.5t111 -258.5zM235 350q0 -78 52.5 -130t127.5 -52t127.5 52t52.5 130t-52.5 130t-127.5 52t-127.5 -52t-52.5 -130zM241 853q0 30 21 51t51 21t51 -21t21 -51t-21 -51 t-51 -21t-51 21t-21 51zM445 853q0 30 21 51t51 21t51 -21t21 -51t-21 -51t-51 -21t-51 21t-21 51z" />
<glyph unicode="&#xd7;" horiz-adv-x="634" d="M317 208l-133 -132l-125 125l133 132l-133 132l125 125l133 -132l133 132l125 -125l-133 -132l133 -132l-125 -125z" />
<glyph unicode="&#xd8;" horiz-adv-x="830" d="M793 350q0 -155 -111 -258.5t-267 -103.5q-78 0 -152 30l-67 -118l-55 31l65 115q-78 49 -123.5 128t-45.5 176q0 155 111 258.5t267 103.5q78 0 152 -30l67 118l55 -31l-66 -116q78 -48 124 -127.5t46 -175.5zM595 350q0 86 -64 140l-177 -312q27 -10 61 -10 q75 0 127.5 52t52.5 130zM235 350q0 -87 64 -140l177 311q-30 11 -61 11q-75 0 -127.5 -52t-52.5 -130z" />
<glyph unicode="&#xd9;" horiz-adv-x="690" d="M345 -12q-115 0 -198 76t-83 203v433h204v-448q0 -43 20.5 -66.5t56.5 -23.5t56.5 23.5t20.5 66.5v448h204v-433q0 -127 -83 -203t-198 -76zM204 872l72 88l164 -130l-70 -85z" />
<glyph unicode="&#xda;" horiz-adv-x="690" d="M345 -12q-115 0 -198 76t-83 203v433h204v-448q0 -43 20.5 -66.5t56.5 -23.5t56.5 23.5t20.5 66.5v448h204v-433q0 -127 -83 -203t-198 -76zM414 960l72 -88l-166 -127l-70 85z" />
<glyph unicode="&#xdb;" horiz-adv-x="690" d="M345 -12q-115 0 -198 76t-83 203v433h204v-448q0 -43 20.5 -66.5t56.5 -23.5t56.5 23.5t20.5 66.5v448h204v-433q0 -127 -83 -203t-198 -76zM365 960l164 -131l-70 -84l-114 88l-114 -88l-70 84l164 131h40z" />
<glyph unicode="&#xdc;" horiz-adv-x="690" d="M345 -12q-115 0 -198 76t-83 203v433h204v-448q0 -43 20.5 -66.5t56.5 -23.5t56.5 23.5t20.5 66.5v448h204v-433q0 -127 -83 -203t-198 -76zM171 853q0 30 21 51t51 21t51 -21t21 -51t-21 -51t-51 -21t-51 21t-21 51zM375 853q0 30 21 51t51 21t51 -21t21 -51t-21 -51 t-51 -21t-51 21t-21 51z" />
<glyph unicode="&#xdd;" horiz-adv-x="710" d="M457 266v-266h-204v266l-237 416l212 30l127 -259l127 259l212 -30zM441 960l72 -88l-166 -127l-70 85z" />
<glyph unicode="&#xde;" horiz-adv-x="615" d="M591 353q0 -114 -80 -181t-204 -67h-44v-105h-199v700h199v-100h44q124 0 204 -66.5t80 -180.5zM387 353q0 69 -95 69h-29v-139h29q95 0 95 70z" />
<glyph unicode="&#xdf;" horiz-adv-x="614" d="M64 0v507q0 112 64.5 177.5t173.5 65.5q98 0 161 -60.5t63 -142.5q0 -44 -20 -81t-54 -58q64 -27 101 -80.5t37 -121.5q0 -97 -56 -157.5t-156 -60.5q-66 0 -118 20l33 147q19 -12 42 -12q27 0 42.5 21t15.5 57q0 90 -98 107l9 124q50 18 50 78q0 27 -15 46t-39 19 q-26 0 -42 -19.5t-16 -49.5v-526h-178z" />
<glyph unicode="&#xe0;" d="M587 468v-468h-178v56q-23 -31 -63 -49.5t-89 -18.5q-96 0 -161 71t-65 175t65 175t161 71q49 0 89 -18.5t63 -49.5v56h178zM213 234q0 -38 26.5 -64t63.5 -26t63.5 26t26.5 64t-26.5 64t-63.5 26t-63.5 -26t-26.5 -64zM198 648l72 88l164 -130l-70 -85z" />
<glyph unicode="&#xe1;" d="M587 468v-468h-178v56q-23 -31 -63 -49.5t-89 -18.5q-96 0 -161 71t-65 175t65 175t161 71q49 0 89 -18.5t63 -49.5v56h178zM213 234q0 -38 26.5 -64t63.5 -26t63.5 26t26.5 64t-26.5 64t-63.5 26t-63.5 -26t-26.5 -64zM374 736l72 -88l-166 -127l-70 85z" />
<glyph unicode="&#xe2;" d="M587 468v-468h-178v56q-23 -31 -63 -49.5t-89 -18.5q-96 0 -161 71t-65 175t65 175t161 71q49 0 89 -18.5t63 -49.5v56h178zM213 234q0 -38 26.5 -64t63.5 -26t63.5 26t26.5 64t-26.5 64t-63.5 26t-63.5 -26t-26.5 -64zM347 736l164 -131l-70 -84l-114 88l-114 -88 l-70 84l164 131h40z" />
<glyph unicode="&#xe3;" d="M587 468v-468h-178v56q-23 -31 -63 -49.5t-89 -18.5q-96 0 -161 71t-65 175t65 175t161 71q49 0 89 -18.5t63 -49.5v56h178zM213 234q0 -38 26.5 -64t63.5 -26t63.5 26t26.5 64t-26.5 64t-63.5 26t-63.5 -26t-26.5 -64zM411 707l97 -23q-9 -66 -38.5 -100.5t-75.5 -34.5 q-41 0 -81 33q-23 20 -39 20q-24 0 -30 -50l-97 23q9 66 38.5 100.5t75.5 34.5q41 0 81 -33q23 -20 39 -20q24 0 30 50z" />
<glyph unicode="&#xe4;" d="M587 468v-468h-178v56q-23 -31 -63 -49.5t-89 -18.5q-96 0 -161 71t-65 175t65 175t161 71q49 0 89 -18.5t63 -49.5v56h178zM213 234q0 -38 26.5 -64t63.5 -26t63.5 26t26.5 64t-26.5 64t-63.5 26t-63.5 -26t-26.5 -64zM153 629q0 30 21 51t51 21t51 -21t21 -51t-21 -51 t-51 -21t-51 21t-21 51zM357 629q0 30 21 51t51 21t51 -21t21 -51t-21 -51t-51 -21t-51 21t-21 51z" />
<glyph unicode="&#xe5;" d="M587 468v-468h-178v56q-23 -31 -63 -49.5t-89 -18.5q-96 0 -161 71t-65 175t65 175t161 71q49 0 89 -18.5t63 -49.5v56h178zM213 234q0 -38 26.5 -64t63.5 -26t63.5 26t26.5 64t-26.5 64t-63.5 26t-63.5 -26t-26.5 -64zM441 629q0 -47 -34 -78.5t-81 -31.5t-81 31.5 t-34 78.5t34 78.5t81 31.5t81 -31.5t34 -78.5zM291 629q0 -15 10 -25t25 -10t25 10t10 25t-10 25t-25 10t-25 -10t-10 -25z" />
<glyph unicode="&#xe6;" horiz-adv-x="874" d="M210 145q0 -22 17.5 -37t42.5 -15t42.5 15t17.5 37t-17.5 37t-42.5 15t-42.5 -15t-17.5 -37zM602 -12q-116 0 -172 72q-63 -72 -182 -72q-99 0 -155 43.5t-56 113.5q0 69 47.5 113t117.5 44q77 0 125 -46v13q0 95 -103 95q-68 0 -115 -38l-50 98q94 56 203 56 q119 0 168 -70q65 70 167 70q104 0 176 -71.5t73 -175.5q0 -28 -1 -36h-339q6 -39 32.5 -60.5t62.5 -21.5q62 0 92 54l130 -71q-85 -110 -221 -110zM509 298h172q-7 30 -30.5 48t-55.5 18t-55.5 -18t-30.5 -48z" />
<glyph unicode="&#xe7;" horiz-adv-x="516" d="M215 -101l-9 26l31 67q-90 15 -149.5 83t-59.5 159q0 103 74.5 174.5t180.5 71.5q63 0 120 -26t96 -74l-128 -98q-32 42 -80 42q-38 0 -62.5 -25.5t-24.5 -64.5t24.5 -64.5t62.5 -25.5q48 0 80 42l128 -98q-63 -75 -159 -94l-20 -41q63 -20 63 -87q0 -44 -34.5 -74 t-89.5 -30q-63 0 -105 28l48 72q14 -10 36 -10q26 0 26 21q0 26 -49 26z" />
<glyph unicode="&#xe8;" horiz-adv-x="575" d="M547 233q0 -28 -1 -36h-338q4 -38 31 -60t63 -22q60 0 92 54l129 -71q-83 -110 -230 -110q-112 0 -188.5 71t-76.5 175q0 103 76.5 174.5t186.5 71.5q105 0 180.5 -72t75.5 -175zM210 298h172q-7 30 -30.5 48t-55.5 18t-55.5 -18t-30.5 -48zM156 648l72 88l164 -130 l-70 -85z" />
<glyph unicode="&#xe9;" horiz-adv-x="575" d="M547 233q0 -28 -1 -36h-338q4 -38 31 -60t63 -22q60 0 92 54l129 -71q-83 -110 -230 -110q-112 0 -188.5 71t-76.5 175q0 103 76.5 174.5t186.5 71.5q105 0 180.5 -72t75.5 -175zM210 298h172q-7 30 -30.5 48t-55.5 18t-55.5 -18t-30.5 -48zM345 736l72 -88l-166 -127 l-70 85z" />
<glyph unicode="&#xea;" horiz-adv-x="575" d="M547 233q0 -28 -1 -36h-338q4 -38 31 -60t63 -22q60 0 92 54l129 -71q-83 -110 -230 -110q-112 0 -188.5 71t-76.5 175q0 103 76.5 174.5t186.5 71.5q105 0 180.5 -72t75.5 -175zM210 298h172q-7 30 -30.5 48t-55.5 18t-55.5 -18t-30.5 -48zM306 736l164 -131l-70 -84 l-114 88l-114 -88l-70 84l164 131h40z" />
<glyph unicode="&#xeb;" horiz-adv-x="575" d="M547 233q0 -28 -1 -36h-338q4 -38 31 -60t63 -22q60 0 92 54l129 -71q-83 -110 -230 -110q-112 0 -188.5 71t-76.5 175q0 103 76.5 174.5t186.5 71.5q105 0 180.5 -72t75.5 -175zM210 298h172q-7 30 -30.5 48t-55.5 18t-55.5 -18t-30.5 -48zM112 629q0 30 21 51t51 21 t51 -21t21 -51t-21 -51t-51 -21t-51 21t-21 51zM316 629q0 30 21 51t51 21t51 -21t21 -51t-21 -51t-51 -21t-51 21t-21 51z" />
<glyph unicode="&#xec;" horiz-adv-x="298" d="M238 468v-468h-178v468h178zM12 648l72 88l164 -130l-70 -85z" />
<glyph unicode="&#xed;" horiz-adv-x="298" d="M238 468v-468h-178v468h178zM214 736l72 -88l-166 -127l-70 85z" />
<glyph unicode="&#xee;" horiz-adv-x="298" d="M238 468v-468h-178v468h178zM169 736l164 -131l-70 -84l-114 88l-114 -88l-70 84l164 131h40z" />
<glyph unicode="&#xef;" horiz-adv-x="298" d="M238 468v-468h-178v468h178zM-25 629q0 30 21 51t51 21t51 -21t21 -51t-21 -51t-51 -21t-51 21t-21 51zM179 629q0 30 21 51t51 21t51 -21t21 -51t-21 -51t-51 -21t-51 21t-21 51z" />
<glyph unicode="&#xf0;" horiz-adv-x="586" d="M28 234q0 100 68.5 166t168.5 68q14 0 23 -1q-26 39 -66 75l-96 -53l-34 60l70 39q-37 26 -101 57q64 29 181 85q46 -25 83 -51l83 46l34 -60l-59 -33q166 -152 166 -374q0 -122 -71.5 -196t-189.5 -74q-110 0 -185 71.5t-75 174.5zM200 234q0 -38 25.5 -63.5t62.5 -25.5 t62.5 25.5t25.5 63.5t-25.5 63.5t-62.5 25.5t-62.5 -25.5t-25.5 -63.5z" />
<glyph unicode="&#xf1;" horiz-adv-x="577" d="M346 0v267q0 27 -16.5 44t-40.5 17t-40 -17t-16 -43v-268h-178v468h178v-50q23 27 59.5 44.5t77.5 17.5q67 0 110.5 -46t43.5 -124v-310h-178zM373 707l97 -23q-9 -66 -38.5 -100.5t-75.5 -34.5q-41 0 -81 33q-23 20 -39 20q-24 0 -30 -50l-97 23q9 66 38.5 100.5 t75.5 34.5q41 0 81 -33q23 -20 39 -20q24 0 30 50z" />
<glyph unicode="&#xf2;" horiz-adv-x="578" d="M550 234q0 -103 -75.5 -174.5t-185.5 -71.5t-185.5 71.5t-75.5 174.5t75.5 174.5t185.5 71.5t185.5 -71.5t75.5 -174.5zM199 234q0 -38 26.5 -64t63.5 -26t63.5 26t26.5 64t-26.5 64t-63.5 26t-63.5 -26t-26.5 -64zM161 648l72 88l164 -130l-70 -85z" />
<glyph unicode="&#xf3;" horiz-adv-x="578" d="M550 234q0 -103 -75.5 -174.5t-185.5 -71.5t-185.5 71.5t-75.5 174.5t75.5 174.5t185.5 71.5t185.5 -71.5t75.5 -174.5zM199 234q0 -38 26.5 -64t63.5 -26t63.5 26t26.5 64t-26.5 64t-63.5 26t-63.5 -26t-26.5 -64zM345 736l72 -88l-166 -127l-70 85z" />
<glyph unicode="&#xf4;" horiz-adv-x="578" d="M550 234q0 -103 -75.5 -174.5t-185.5 -71.5t-185.5 71.5t-75.5 174.5t75.5 174.5t185.5 71.5t185.5 -71.5t75.5 -174.5zM199 234q0 -38 26.5 -64t63.5 -26t63.5 26t26.5 64t-26.5 64t-63.5 26t-63.5 -26t-26.5 -64zM309 736l164 -131l-70 -84l-114 88l-114 -88l-70 84 l164 131h40z" />
<glyph unicode="&#xf5;" horiz-adv-x="578" d="M550 234q0 -103 -75.5 -174.5t-185.5 -71.5t-185.5 71.5t-75.5 174.5t75.5 174.5t185.5 71.5t185.5 -71.5t75.5 -174.5zM199 234q0 -38 26.5 -64t63.5 -26t63.5 26t26.5 64t-26.5 64t-63.5 26t-63.5 -26t-26.5 -64zM373 707l97 -23q-9 -66 -38.5 -100.5t-75.5 -34.5 q-41 0 -81 33q-23 20 -39 20q-24 0 -30 -50l-97 23q9 66 38.5 100.5t75.5 34.5q41 0 81 -33q23 -20 39 -20q24 0 30 50z" />
<glyph unicode="&#xf6;" horiz-adv-x="578" d="M550 234q0 -103 -75.5 -174.5t-185.5 -71.5t-185.5 71.5t-75.5 174.5t75.5 174.5t185.5 71.5t185.5 -71.5t75.5 -174.5zM199 234q0 -38 26.5 -64t63.5 -26t63.5 26t26.5 64t-26.5 64t-63.5 26t-63.5 -26t-26.5 -64zM115 629q0 30 21 51t51 21t51 -21t21 -51t-21 -51 t-51 -21t-51 21t-21 51zM319 629q0 30 21 51t51 21t51 -21t21 -51t-21 -51t-51 -21t-51 21t-21 51z" />
<glyph unicode="&#xf7;" horiz-adv-x="634" d="M572 258h-510v148h510v-148zM409 546q0 -39 -26.5 -65.5t-65.5 -26.5t-65.5 26.5t-26.5 65.5t26.5 65.5t65.5 26.5t65.5 -26.5t26.5 -65.5zM409 118q0 -39 -26.5 -65.5t-65.5 -26.5t-65.5 26.5t-26.5 65.5t26.5 65.5t65.5 26.5t65.5 -26.5t26.5 -65.5z" />
<glyph unicode="&#xf8;" horiz-adv-x="578" d="M75 -83l65 114q-52 33 -82 86.5t-30 116.5q0 103 75.5 174.5t185.5 71.5q51 0 96 -17l67 118l51 -30l-65 -114q52 -34 82 -87.5t30 -115.5q0 -103 -75.5 -174.5t-185.5 -71.5q-50 0 -96 16l-67 -117zM199 234q0 -35 22 -60l84 148q-10 2 -16 2q-37 0 -63.5 -26t-26.5 -64 zM379 234q0 34 -22 59l-84 -148q5 -1 16 -1q37 0 63.5 26t26.5 64z" />
<glyph unicode="&#xf9;" horiz-adv-x="579" d="M233 468v-267q0 -27 16.5 -44t40.5 -17t40 17t16 43v268h178v-468h-178v50q-23 -27 -59.5 -44.5t-77.5 -17.5q-67 0 -110.5 46t-43.5 124v310h178zM154 648l72 88l164 -130l-70 -85z" />
<glyph unicode="&#xfa;" horiz-adv-x="579" d="M233 468v-267q0 -27 16.5 -44t40.5 -17t40 17t16 43v268h178v-468h-178v50q-23 -27 -59.5 -44.5t-77.5 -17.5q-67 0 -110.5 46t-43.5 124v310h178zM353 736l72 -88l-166 -127l-70 85z" />
<glyph unicode="&#xfb;" horiz-adv-x="579" d="M233 468v-267q0 -27 16.5 -44t40.5 -17t40 17t16 43v268h178v-468h-178v50q-23 -27 -59.5 -44.5t-77.5 -17.5q-67 0 -110.5 46t-43.5 124v310h178zM309 736l164 -131l-70 -84l-114 88l-114 -88l-70 84l164 131h40z" />
<glyph unicode="&#xfc;" horiz-adv-x="579" d="M233 468v-267q0 -27 16.5 -44t40.5 -17t40 17t16 43v268h178v-468h-178v50q-23 -27 -59.5 -44.5t-77.5 -17.5q-67 0 -110.5 46t-43.5 124v310h178zM115 629q0 30 21 51t51 21t51 -21t21 -51t-21 -51t-51 -21t-51 21t-21 51zM319 629q0 30 21 51t51 21t51 -21t21 -51 t-21 -51t-51 -21t-51 21t-21 51z" />
<glyph unicode="&#xfd;" horiz-adv-x="554" d="M539 456l-269 -750l-178 24l105 284l-182 442l179 24l86 -277l80 277zM340 736l72 -88l-166 -127l-70 85z" />
<glyph unicode="&#xfe;" d="M55 -282v1032h178v-338q23 31 63 49.5t89 18.5q96 0 161 -71t65 -175t-65 -175t-161 -71q-49 0 -89 18.5t-63 49.5v-338h-178zM429 234q0 38 -26.5 64t-63.5 26t-63.5 -26t-26.5 -64t26.5 -64t63.5 -26t63.5 26t26.5 64z" />
<glyph unicode="&#xff;" horiz-adv-x="554" d="M539 456l-269 -750l-178 24l105 284l-182 442l179 24l86 -277l80 277zM108 629q0 30 21 51t51 21t51 -21t21 -51t-21 -51t-51 -21t-51 21t-21 51zM312 629q0 30 21 51t51 21t51 -21t21 -51t-21 -51t-51 -21t-51 21t-21 51z" />
<glyph unicode="&#x152;" horiz-adv-x="879" d="M414 180v340q-75 0 -124.5 -47t-49.5 -123t49.5 -123t124.5 -47zM835 0h-421q-155 0 -266 100t-111 250t111 250t266 100h412v-151h-208v-110h187v-150h-187v-139h217v-150z" />
<glyph unicode="&#x153;" horiz-adv-x="918" d="M642 480q104 0 175.5 -71.5t72.5 -175.5q0 -28 -1 -36h-339q6 -39 32.5 -60.5t62.5 -21.5q62 0 92 54l130 -71q-85 -110 -221 -110q-117 0 -182 75q-67 -75 -180 -75q-106 0 -181 71.5t-75 174.5t75 174.5t181 71.5q113 0 180 -75q67 75 178 75zM289 144q37 0 63 26 t26 64t-26 64t-63 26t-63 -26t-26 -64t26 -64t63 -26zM553 298h172q-7 30 -30.5 48t-55.5 18t-55.5 -18t-30.5 -48z" />
<glyph unicode="&#x178;" horiz-adv-x="710" d="M457 266v-266h-204v266l-237 416l212 30l127 -259l127 259l212 -30zM181 853q0 30 21 51t51 21t51 -21t21 -51t-21 -51t-51 -21t-51 21t-21 51zM385 853q0 30 21 51t51 21t51 -21t21 -51t-21 -51t-51 -21t-51 21t-21 51z" />
<glyph unicode="&#x2c6;" horiz-adv-x="424" d="M232 756l164 -131l-70 -84l-114 88l-114 -88l-70 84l164 131h40z" />
<glyph unicode="&#x2dc;" horiz-adv-x="424" d="M295 728l97 -23q-9 -66 -38.5 -100.5t-75.5 -34.5q-41 0 -81 33q-23 20 -39 20q-24 0 -30 -50l-97 23q9 66 38.5 100.5t75.5 34.5q41 0 81 -33q23 -20 39 -20q24 0 30 50z" />
<glyph unicode="&#x2000;" horiz-adv-x="481" />
<glyph unicode="&#x2001;" horiz-adv-x="963" />
<glyph unicode="&#x2002;" horiz-adv-x="481" />
<glyph unicode="&#x2003;" horiz-adv-x="963" />
<glyph unicode="&#x2004;" horiz-adv-x="321" />
<glyph unicode="&#x2005;" horiz-adv-x="240" />
<glyph unicode="&#x2006;" horiz-adv-x="160" />
<glyph unicode="&#x2007;" horiz-adv-x="160" />
<glyph unicode="&#x2008;" horiz-adv-x="120" />
<glyph unicode="&#x2009;" horiz-adv-x="192" />
<glyph unicode="&#x200a;" horiz-adv-x="53" />
<glyph unicode="&#x2010;" horiz-adv-x="406" d="M354 258h-302v148h302v-148z" />
<glyph unicode="&#x2011;" horiz-adv-x="406" d="M354 258h-302v148h302v-148z" />
<glyph unicode="&#x2012;" horiz-adv-x="406" d="M354 258h-302v148h302v-148z" />
<glyph unicode="&#x2013;" horiz-adv-x="500" d="M500 258h-500v148h500v-148z" />
<glyph unicode="&#x2014;" horiz-adv-x="1000" d="M1000 258h-1000v148h1000v-148z" />
<glyph unicode="&#x2018;" horiz-adv-x="320" d="M318 772l-78 -337l-188 24l122 330z" />
<glyph unicode="&#x2019;" horiz-adv-x="320" d="M14 472l78 337l188 -24l-122 -330z" />
<glyph unicode="&#x201a;" horiz-adv-x="320" d="M14 -140l78 337l188 -24l-122 -330z" />
<glyph unicode="&#x201c;" horiz-adv-x="589" d="M587 772l-78 -337l-188 24l122 330zM318 772l-78 -337l-188 24l122 330z" />
<glyph unicode="&#x201d;" horiz-adv-x="589" d="M283 472l78 337l188 -24l-122 -330zM14 472l78 337l188 -24l-122 -330z" />
<glyph unicode="&#x201e;" horiz-adv-x="589" d="M14 -140l78 337l188 -24l-122 -330zM283 -140l78 337l188 -24l-122 -330z" />
<glyph unicode="&#x2022;" horiz-adv-x="480" d="M81 332q0 65 47 112t112 47t112 -47t47 -112t-47 -112t-112 -47t-112 47t-47 112z" />
<glyph unicode="&#x2026;" horiz-adv-x="940" d="M53 96q0 45 31 76.5t76 31.5t76 -31.5t31 -76.5t-31 -76.5t-76 -31.5t-76 31.5t-31 76.5zM363 96q0 45 31 76.5t76 31.5t76 -31.5t31 -76.5t-31 -76.5t-76 -31.5t-76 31.5t-31 76.5zM673 96q0 45 31 76.5t76 31.5t76 -31.5t31 -76.5t-31 -76.5t-76 -31.5t-76 31.5 t-31 76.5z" />
<glyph unicode="&#x202f;" horiz-adv-x="192" />
<glyph unicode="&#x2039;" horiz-adv-x="356" d="M37 283v58l257 181l25 -122l-131 -88l131 -88l-25 -122z" />
<glyph unicode="&#x203a;" horiz-adv-x="356" d="M319 341v-58l-257 -181l-25 122l131 88l-131 88l25 122z" />
<glyph unicode="&#x205f;" horiz-adv-x="240" />
<glyph unicode="&#x20ac;" horiz-adv-x="703" d="M265 350q0 -15 1 -23h210v-66h-195q12 -41 46 -65.5t80 -24.5q70 0 126 61l141 -107q-106 -137 -275 -137q-126 0 -214.5 74t-113.5 199h-62v66h53v46h-53v66h62q25 125 113.5 199t214.5 74q169 0 275 -137l-141 -107q-56 61 -126 61q-46 0 -80 -24.5t-46 -65.5h195v-66 h-210q-1 -8 -1 -23z" />
<glyph unicode="&#x2122;" horiz-adv-x="710" d="M30 606v90h240v-90h-70v-243h-100v243h-70zM494 363h-58l-46 146l-37 -152l-103 12l105 327h60l50 -163l50 163h60l105 -327l-103 -12l-37 152z" />
<glyph unicode="&#x25fc;" horiz-adv-x="480" d="M0 480h480v-480h-480v480z" />
</font>
</defs>
</svg>
